<svg width="277" height="175" viewBox="0 0 277 175" fill="none" xmlns="http://www.w3.org/2000/svg">
<path d="M210.255 12.3105L209.403 11.5155L171.224 48.9791L171.221 48.9819L170.856 49.3345L170.852 49.3378C169.889 50.2506 168.874 50.9681 167.921 51.3144C166.963 51.6622 165.968 51.6625 165.215 50.9598C164.41 50.2092 164.418 49.1239 164.786 48.0913C165.157 47.0514 165.933 45.9233 166.917 44.8689C166.917 44.8687 166.917 44.8686 166.917 44.8685L203.245 5.77131L202.383 4.96758C199.065 7.74304 195.549 10.6108 191.939 13.5553C179.703 23.5358 166.388 34.397 156.004 45.5281C147.975 54.1355 143.874 64.1748 144.948 71.3559C145.244 73.3117 144.972 74.7743 144.611 75.7613C144.431 76.2533 144.23 76.6236 144.07 76.8755C143.99 77.0014 143.92 77.0977 143.868 77.1648C143.842 77.1984 143.821 77.2247 143.805 77.2438C143.797 77.2533 143.79 77.261 143.785 77.267L143.778 77.2746L143.776 77.2773L143.775 77.2785L143.774 77.279C143.774 77.2792 143.774 77.2794 143.404 76.9424M210.255 12.3105L179.968 57.0428L216.411 18.053L217.261 18.8456C214.924 22.0981 212.507 25.5375 210.021 29.0762C200.839 42.1458 190.705 56.5709 180.098 67.9411C176.08 72.2488 171.613 75.5943 167.262 77.7864C162.905 79.9813 158.696 81.0047 155.185 80.7145C153.022 80.5308 151.546 80.9216 150.593 81.3868C150.118 81.6184 149.78 81.8657 149.555 82.0619C149.442 82.1598 149.359 82.2449 149.301 82.3086C149.272 82.3405 149.249 82.367 149.232 82.3872C149.225 82.396 149.219 82.4037 149.214 82.41L149.211 82.4135L149.179 82.4517L149.05 82.6025L148.55 83.1911L146.646 85.4293C145.004 87.3597 142.653 90.1224 139.819 93.4514C134.152 100.109 126.552 109.033 118.824 118.094C103.36 136.226 87.4003 154.886 85.3515 157.082C83.3105 159.27 81.7045 160.625 80.2785 161.538C78.858 162.447 77.5977 162.929 76.2258 163.351C73.5621 164.147 71.2387 163.525 69.7962 162.18L69.7187 162.107C68.2739 160.76 67.4762 158.466 68.1032 155.776C68.7444 153.024 70.1541 149.986 73.6858 146.2C75.4675 144.29 92.9747 127.074 110.056 110.317C118.593 101.943 127.017 93.6883 133.308 87.5276C136.453 84.4472 139.064 81.8903 140.89 80.1034L143.006 78.0315L143.563 77.4866L143.706 77.347L143.742 77.3116L143.751 77.3028L143.753 77.3005C143.754 77.3 143.754 77.2998 143.404 76.9424M210.255 12.3105L175.819 53.1891C175.788 53.222 175.76 53.2494 175.725 53.2831C175.702 53.3057 175.676 53.3311 175.644 53.3629C175.576 53.4309 175.494 53.5171 175.418 53.6221C174.59 54.6291 173.912 55.6438 173.59 56.5684C173.264 57.5051 173.27 58.4741 174.029 59.1814C174.835 59.9334 175.914 59.8441 176.913 59.3998C177.919 58.9525 178.985 58.0962 179.967 57.0431L210.255 12.3105ZM143.404 76.9424L143.774 77.2794L143.764 77.2899L143.754 77.2998L143.404 76.9424Z" fill="#DDDDDD" stroke="black"/>
<path d="M156.151 107.963L156.146 107.955L156.141 107.948L156.044 107.818C152.485 102.75 148.385 101.687 144.148 100.588C143.89 100.522 143.631 100.454 143.372 100.386C141.116 99.7931 138.826 99.1227 136.491 97.7933C134.161 96.4667 131.766 94.4714 129.336 91.2077C95.6332 45.9501 91.3097 19.1197 90.9351 7.48256C90.9105 6.37202 91.2859 5.48801 92.0826 4.89473C92.1199 4.86698 92.1433 4.85578 92.1548 4.85144C92.1603 4.84938 92.1631 4.84881 92.1639 4.84868L92.1654 4.84856C92.1656 4.84857 92.1772 4.8486 92.2045 4.85963C92.2333 4.87127 92.2771 4.8942 92.338 4.93828C92.6062 5.13235 92.9959 5.57442 93.6327 6.42954L197.433 145.816C199.301 148.325 200.466 151.228 200.668 153.853C200.87 156.474 200.114 158.76 198.217 160.173L198.102 160.258C196.202 161.673 193.707 161.777 191.182 160.856C188.658 159.935 186.163 158.005 184.359 155.469C182.687 152.977 179.926 148.044 176.525 141.968C175.358 139.884 174.116 137.666 172.817 135.365C167.741 126.374 161.809 116.163 156.151 107.963Z" fill="#DDDDDD" stroke="black"/>
<g filter="url(#filter0_d_12_2)">
<mask id="path-3-outside-1_12_2" maskUnits="userSpaceOnUse" x="0" y="58" width="271" height="52" fill="black">
<rect fill="white" y="58" width="271" height="52"/>
<path d="M21.176 60.92C24.9307 60.92 28.0667 61.4107 30.584 62.392C33.1013 63.3307 34.9787 64.9307 36.216 67.192C37.496 69.4107 38.136 72.4613 38.136 76.344C38.136 79.5867 37.6453 82.2533 36.664 84.344C35.6827 86.392 34.1893 88.0347 32.184 89.272L39.992 107H26.104L21.048 92.024H19V107H6.52V69.688L3 60.92H21.176ZM19 83.448C20.9627 83.448 22.4133 82.9573 23.352 81.976C24.2907 80.9947 24.76 79.2667 24.76 76.792C24.76 74.8293 24.5893 73.3787 24.248 72.44C23.9067 71.4587 23.3093 70.7973 22.456 70.456C21.6453 70.1147 20.4933 69.944 19 69.944V83.448ZM47.3675 60.92H78.0235L76.1035 71.16H63.3675V78.2H75.3355L73.4155 88.44H63.3675V96.76H78.4715L76.5515 107H50.8875V69.688L47.3675 60.92ZM87.765 84.28C87.765 78.2213 88.469 73.464 89.877 70.008C91.285 66.5093 93.397 64.0347 96.213 62.584C99.0717 61.1333 102.613 60.408 106.837 60.408C108.202 60.408 109.76 60.4933 111.509 60.664C113.301 60.792 115.029 61.048 116.693 61.432V78.328H108.949L107.925 70.584C106.773 70.584 105.77 70.7333 104.917 71.032C104.106 71.288 103.424 71.864 102.869 72.76C102.314 73.656 101.888 75.0213 101.589 76.856C101.333 78.6907 101.205 81.144 101.205 84.216C101.205 87.544 101.568 90.168 102.293 92.088C103.018 93.9653 104.106 95.3093 105.557 96.12C107.05 96.888 108.949 97.272 111.253 97.272C112.277 97.272 113.258 97.208 114.197 97.08C115.136 96.952 116.138 96.8027 117.205 96.632V106.744C115.968 107.043 114.474 107.256 112.725 107.384C110.976 107.555 109.418 107.64 108.053 107.64C100.757 107.64 95.5517 105.677 92.437 101.752C89.3223 97.8267 87.765 92.0027 87.765 84.28ZM129.358 60.92H141.838V107H129.358V60.92ZM155.928 107V69.688L152.408 60.92H170.84C174.68 60.92 177.858 61.4533 180.376 62.52C182.893 63.544 184.77 65.2933 186.008 67.768C187.245 70.2427 187.864 73.6133 187.864 77.88C187.864 83.768 186.456 88.0133 183.64 90.616C180.824 93.2187 176.557 94.52 170.84 94.52H168.408V107H155.928ZM168.408 85.368C170.456 85.368 171.97 84.8133 172.952 83.704C173.976 82.5947 174.488 80.6107 174.488 77.752C174.488 75.576 174.296 73.9333 173.912 72.824C173.57 71.7147 172.952 70.968 172.056 70.584C171.202 70.1573 169.986 69.944 168.408 69.944V85.368ZM196.525 60.92H227.181L225.261 71.16H212.525V78.2H224.493L222.573 88.44H212.525V96.76H227.629L225.709 107H200.045V69.688L196.525 60.92ZM250.668 96.568C252.289 96.568 253.505 96.3333 254.316 95.864C255.126 95.3947 255.532 94.6267 255.532 93.56C255.532 92.8347 255.34 92.2587 254.956 91.832C254.572 91.4053 253.889 90.9787 252.908 90.552L246.124 87.416C243.606 86.264 241.665 84.728 240.3 82.808C238.934 80.888 238.252 78.0933 238.252 74.424C238.252 69.7307 239.468 66.232 241.9 63.928C244.374 61.5813 248.449 60.3867 254.124 60.344C256.47 60.344 258.604 60.4507 260.524 60.664C262.444 60.8773 263.98 61.112 265.132 61.368C266.284 61.5813 266.86 61.688 266.86 61.688L265.58 71.992C265.58 71.992 265.046 71.928 263.98 71.8C262.956 71.672 261.676 71.5653 260.14 71.48C258.604 71.352 257.11 71.288 255.66 71.288C254.124 71.288 252.95 71.5227 252.14 71.992C251.372 72.4187 250.988 73.2507 250.988 74.488C250.988 75.1707 251.286 75.7467 251.884 76.216C252.481 76.6427 253.313 77.0907 254.38 77.56L259.82 79.928C262.721 81.208 264.833 82.808 266.156 84.728C267.478 86.6053 268.14 89.2933 268.14 92.792C268.14 97.528 266.902 101.176 264.428 103.736C261.953 106.296 257.878 107.597 252.204 107.64C249.388 107.64 246.764 107.448 244.332 107.064C241.9 106.723 239.745 106.317 237.868 105.848L239.148 95.544C239.148 95.544 239.66 95.6293 240.684 95.8C241.75 95.9707 243.158 96.1413 244.908 96.312C246.657 96.4827 248.577 96.568 250.668 96.568Z"/>
</mask>
<path d="M21.176 60.92C24.9307 60.92 28.0667 61.4107 30.584 62.392C33.1013 63.3307 34.9787 64.9307 36.216 67.192C37.496 69.4107 38.136 72.4613 38.136 76.344C38.136 79.5867 37.6453 82.2533 36.664 84.344C35.6827 86.392 34.1893 88.0347 32.184 89.272L39.992 107H26.104L21.048 92.024H19V107H6.52V69.688L3 60.92H21.176ZM19 83.448C20.9627 83.448 22.4133 82.9573 23.352 81.976C24.2907 80.9947 24.76 79.2667 24.76 76.792C24.76 74.8293 24.5893 73.3787 24.248 72.44C23.9067 71.4587 23.3093 70.7973 22.456 70.456C21.6453 70.1147 20.4933 69.944 19 69.944V83.448ZM47.3675 60.92H78.0235L76.1035 71.16H63.3675V78.2H75.3355L73.4155 88.44H63.3675V96.76H78.4715L76.5515 107H50.8875V69.688L47.3675 60.92ZM87.765 84.28C87.765 78.2213 88.469 73.464 89.877 70.008C91.285 66.5093 93.397 64.0347 96.213 62.584C99.0717 61.1333 102.613 60.408 106.837 60.408C108.202 60.408 109.76 60.4933 111.509 60.664C113.301 60.792 115.029 61.048 116.693 61.432V78.328H108.949L107.925 70.584C106.773 70.584 105.77 70.7333 104.917 71.032C104.106 71.288 103.424 71.864 102.869 72.76C102.314 73.656 101.888 75.0213 101.589 76.856C101.333 78.6907 101.205 81.144 101.205 84.216C101.205 87.544 101.568 90.168 102.293 92.088C103.018 93.9653 104.106 95.3093 105.557 96.12C107.05 96.888 108.949 97.272 111.253 97.272C112.277 97.272 113.258 97.208 114.197 97.08C115.136 96.952 116.138 96.8027 117.205 96.632V106.744C115.968 107.043 114.474 107.256 112.725 107.384C110.976 107.555 109.418 107.64 108.053 107.64C100.757 107.64 95.5517 105.677 92.437 101.752C89.3223 97.8267 87.765 92.0027 87.765 84.28ZM129.358 60.92H141.838V107H129.358V60.92ZM155.928 107V69.688L152.408 60.92H170.84C174.68 60.92 177.858 61.4533 180.376 62.52C182.893 63.544 184.77 65.2933 186.008 67.768C187.245 70.2427 187.864 73.6133 187.864 77.88C187.864 83.768 186.456 88.0133 183.64 90.616C180.824 93.2187 176.557 94.52 170.84 94.52H168.408V107H155.928ZM168.408 85.368C170.456 85.368 171.97 84.8133 172.952 83.704C173.976 82.5947 174.488 80.6107 174.488 77.752C174.488 75.576 174.296 73.9333 173.912 72.824C173.57 71.7147 172.952 70.968 172.056 70.584C171.202 70.1573 169.986 69.944 168.408 69.944V85.368ZM196.525 60.92H227.181L225.261 71.16H212.525V78.2H224.493L222.573 88.44H212.525V96.76H227.629L225.709 107H200.045V69.688L196.525 60.92ZM250.668 96.568C252.289 96.568 253.505 96.3333 254.316 95.864C255.126 95.3947 255.532 94.6267 255.532 93.56C255.532 92.8347 255.34 92.2587 254.956 91.832C254.572 91.4053 253.889 90.9787 252.908 90.552L246.124 87.416C243.606 86.264 241.665 84.728 240.3 82.808C238.934 80.888 238.252 78.0933 238.252 74.424C238.252 69.7307 239.468 66.232 241.9 63.928C244.374 61.5813 248.449 60.3867 254.124 60.344C256.47 60.344 258.604 60.4507 260.524 60.664C262.444 60.8773 263.98 61.112 265.132 61.368C266.284 61.5813 266.86 61.688 266.86 61.688L265.58 71.992C265.58 71.992 265.046 71.928 263.98 71.8C262.956 71.672 261.676 71.5653 260.14 71.48C258.604 71.352 257.11 71.288 255.66 71.288C254.124 71.288 252.95 71.5227 252.14 71.992C251.372 72.4187 250.988 73.2507 250.988 74.488C250.988 75.1707 251.286 75.7467 251.884 76.216C252.481 76.6427 253.313 77.0907 254.38 77.56L259.82 79.928C262.721 81.208 264.833 82.808 266.156 84.728C267.478 86.6053 268.14 89.2933 268.14 92.792C268.14 97.528 266.902 101.176 264.428 103.736C261.953 106.296 257.878 107.597 252.204 107.64C249.388 107.64 246.764 107.448 244.332 107.064C241.9 106.723 239.745 106.317 237.868 105.848L239.148 95.544C239.148 95.544 239.66 95.6293 240.684 95.8C241.75 95.9707 243.158 96.1413 244.908 96.312C246.657 96.4827 248.577 96.568 250.668 96.568Z" fill="#FFFEFE"/>
<path d="M30.584 62.392L29.8576 64.2554L29.8714 64.2608L29.8852 64.266L30.584 62.392ZM36.216 67.192L34.4615 68.152L34.4723 68.1719L34.4836 68.1914L36.216 67.192ZM36.664 84.344L38.4676 85.2082L38.4711 85.201L38.4745 85.1938L36.664 84.344ZM32.184 89.272L31.1338 87.5699L29.6517 88.4844L30.3537 90.0781L32.184 89.272ZM39.992 107V109H43.0583L41.8223 106.194L39.992 107ZM26.104 107L24.2091 107.64L24.6683 109H26.104V107ZM21.048 92.024L22.9429 91.3843L22.4837 90.024H21.048V92.024ZM19 92.024V90.024H17V92.024H19ZM19 107V109H21V107H19ZM6.52 107H4.52V109H6.52V107ZM6.52 69.688H8.52V69.3015L8.37602 68.9429L6.52 69.688ZM3 60.92V58.92H0.0419285L1.14398 61.6651L3 60.92ZM19 83.448H17V85.448H19V83.448ZM23.352 81.976L24.7973 83.3584L23.352 81.976ZM24.248 72.44L22.359 73.097L22.3636 73.1103L22.3684 73.1235L24.248 72.44ZM22.456 70.456L21.6799 72.2993L21.6965 72.3063L21.7132 72.313L22.456 70.456ZM19 69.944V67.944H17V69.944H19ZM21.176 62.92C24.7721 62.92 27.643 63.3921 29.8576 64.2554L31.3104 60.5286C28.4904 59.4292 25.0893 58.92 21.176 58.92V62.92ZM29.8852 64.266C31.973 65.0445 33.4653 66.3313 34.4615 68.152L37.9705 66.232C36.4921 63.53 34.2296 61.6169 31.2828 60.518L29.8852 64.266ZM34.4836 68.1914C35.5204 69.9885 36.136 72.6453 36.136 76.344H40.136C40.136 72.2773 39.4716 68.8328 37.9484 66.1926L34.4836 68.1914ZM36.136 76.344C36.136 79.4038 35.6702 81.7543 34.8535 83.4942L38.4745 85.1938C39.6205 82.7524 40.136 79.7695 40.136 76.344H36.136ZM34.8604 83.4798C34.0511 85.1686 32.8258 86.5259 31.1338 87.5699L33.2342 90.9741C35.5529 89.5434 37.3142 87.6154 38.4676 85.2082L34.8604 83.4798ZM30.3537 90.0781L38.1617 107.806L41.8223 106.194L34.0143 88.4659L30.3537 90.0781ZM39.992 105H26.104V109H39.992V105ZM27.9989 106.36L22.9429 91.3843L19.1531 92.6637L24.2091 107.64L27.9989 106.36ZM21.048 90.024H19V94.024H21.048V90.024ZM17 92.024V107H21V92.024H17ZM19 105H6.52V109H19V105ZM8.52 107V69.688H4.52V107H8.52ZM8.37602 68.9429L4.85602 60.1749L1.14398 61.6651L4.66398 70.4331L8.37602 68.9429ZM3 62.92H21.176V58.92H3V62.92ZM19 85.448C21.2631 85.448 23.34 84.882 24.7973 83.3584L21.9067 80.5936C21.4867 81.0326 20.6622 81.448 19 81.448V85.448ZM24.7973 83.3584C26.2891 81.7988 26.76 79.3996 26.76 76.792H22.76C22.76 79.1337 22.2922 80.1905 21.9067 80.5936L24.7973 83.3584ZM26.76 76.792C26.76 74.7764 26.5929 73.0362 26.1276 71.7565L22.3684 73.1235C22.5857 73.7211 22.76 74.8822 22.76 76.792H26.76ZM26.137 71.783C25.6331 70.3342 24.6636 69.185 23.1988 68.599L21.7132 72.313C21.9551 72.4097 22.1803 72.5831 22.359 73.097L26.137 71.783ZM23.2321 68.6127C22.0619 68.12 20.5997 67.944 19 67.944V71.944C20.387 71.944 21.2288 72.1093 21.6799 72.2993L23.2321 68.6127ZM17 69.944V83.448H21V69.944H17ZM47.3675 60.92V58.92H44.4094L45.5115 61.6651L47.3675 60.92ZM78.0235 60.92L79.9893 61.2886L80.4334 58.92H78.0235V60.92ZM76.1035 71.16V73.16H77.7634L78.0692 71.5286L76.1035 71.16ZM63.3675 71.16V69.16H61.3675V71.16H63.3675ZM63.3675 78.2H61.3675V80.2H63.3675V78.2ZM75.3355 78.2L77.3012 78.5686L77.7454 76.2H75.3355V78.2ZM73.4155 88.44V90.44H75.0754L75.3812 88.8086L73.4155 88.44ZM63.3675 88.44V86.44H61.3675V88.44H63.3675ZM63.3675 96.76H61.3675V98.76H63.3675V96.76ZM78.4715 96.76L80.4372 97.1286L80.8814 94.76H78.4715V96.76ZM76.5515 107V109H78.2114L78.5173 107.369L76.5515 107ZM50.8875 107H48.8875V109H50.8875V107ZM50.8875 69.688H52.8875V69.3015L52.7435 68.9429L50.8875 69.688ZM47.3675 62.92H78.0235V58.92H47.3675V62.92ZM76.0578 60.5514L74.1378 70.7914L78.0692 71.5286L79.9893 61.2886L76.0578 60.5514ZM76.1035 69.16H63.3675V73.16H76.1035V69.16ZM61.3675 71.16V78.2H65.3675V71.16H61.3675ZM63.3675 80.2H75.3355V76.2H63.3675V80.2ZM73.3698 77.8314L71.4498 88.0714L75.3812 88.8086L77.3012 78.5686L73.3698 77.8314ZM73.4155 86.44H63.3675V90.44H73.4155V86.44ZM61.3675 88.44V96.76H65.3675V88.44H61.3675ZM63.3675 98.76H78.4715V94.76H63.3675V98.76ZM76.5058 96.3914L74.5858 106.631L78.5173 107.369L80.4372 97.1286L76.5058 96.3914ZM76.5515 105H50.8875V109H76.5515V105ZM52.8875 107V69.688H48.8875V107H52.8875ZM52.7435 68.9429L49.2235 60.1749L45.5115 61.6651L49.0315 70.4331L52.7435 68.9429ZM89.877 70.008L91.7292 70.7626L91.7324 70.7547L89.877 70.008ZM96.213 62.584L95.3079 60.8005L95.2971 60.8061L96.213 62.584ZM111.509 60.664L111.315 62.6545L111.341 62.6571L111.367 62.6589L111.509 60.664ZM116.693 61.432H118.693V59.841L117.143 59.4832L116.693 61.432ZM116.693 78.328V80.328H118.693V78.328H116.693ZM108.949 78.328L106.966 78.5902L107.196 80.328H108.949V78.328ZM107.925 70.584L109.908 70.3218L109.678 68.584H107.925V70.584ZM104.917 71.032L105.519 72.9392L105.549 72.9299L105.578 72.9197L104.917 71.032ZM102.869 72.76L101.168 71.7073V71.7073L102.869 72.76ZM101.589 76.856L99.615 76.5346L99.6113 76.5571L99.6082 76.5796L101.589 76.856ZM102.293 92.088L100.422 92.7948L100.425 92.8018L100.427 92.8088L102.293 92.088ZM105.557 96.12L104.581 97.8659L104.612 97.8828L104.642 97.8986L105.557 96.12ZM114.197 97.08L114.467 99.0617H114.467L114.197 97.08ZM117.205 96.632H119.205V94.2866L116.889 94.6571L117.205 96.632ZM117.205 106.744L117.674 108.688L119.205 108.319V106.744H117.205ZM112.725 107.384L112.579 105.389L112.555 105.391L112.531 105.393L112.725 107.384ZM92.437 101.752L90.8703 102.995L92.437 101.752ZM89.765 84.28C89.765 78.3387 90.4608 73.8759 91.7292 70.7626L88.0248 69.2534C86.4772 73.0521 85.765 78.104 85.765 84.28H89.765ZM91.7324 70.7547C92.997 67.6123 94.818 65.5524 97.1289 64.3619L95.2971 60.8061C91.976 62.5169 89.573 65.4064 88.0216 69.2613L91.7324 70.7547ZM97.1181 64.3675C99.6216 63.097 102.832 62.408 106.837 62.408V58.408C102.394 58.408 98.5217 59.1696 95.3079 60.8005L97.1181 64.3675ZM106.837 62.408C108.122 62.408 109.613 62.4885 111.315 62.6545L111.703 58.6734C109.907 58.4982 108.282 58.408 106.837 58.408V62.408ZM111.367 62.6589C113.06 62.7799 114.685 63.0213 116.243 63.3808L117.143 59.4832C115.373 59.0747 113.542 58.8041 111.651 58.6691L111.367 62.6589ZM114.693 61.432V78.328H118.693V61.432H114.693ZM116.693 76.328H108.949V80.328H116.693V76.328ZM110.932 78.0658L109.908 70.3218L105.942 70.8462L106.966 78.5902L110.932 78.0658ZM107.925 68.584C106.607 68.584 105.371 68.7541 104.256 69.1443L105.578 72.9197C106.17 72.7126 106.939 72.584 107.925 72.584V68.584ZM104.315 69.1248C102.946 69.5572 101.913 70.5052 101.168 71.7073L104.57 73.8127C104.935 73.2228 105.267 73.0188 105.519 72.9392L104.315 69.1248ZM101.168 71.7073C100.408 72.9362 99.9286 74.6084 99.615 76.5346L103.563 77.1773C103.847 75.4343 104.221 74.3758 104.57 73.8127L101.168 71.7073ZM99.6082 76.5796C99.3338 78.5457 99.205 81.1032 99.205 84.216H103.205C103.205 81.1848 103.332 78.8356 103.57 77.1324L99.6082 76.5796ZM99.205 84.216C99.205 87.6543 99.5749 90.5522 100.422 92.7948L104.164 91.3812C103.56 89.7837 103.205 87.4337 103.205 84.216H99.205ZM100.427 92.8088C101.284 95.0258 102.642 96.7824 104.581 97.8659L106.533 94.3741C105.57 93.8363 104.753 92.9049 104.159 91.3672L100.427 92.8088ZM104.642 97.8986C106.504 98.856 108.743 99.272 111.253 99.272V95.272C109.155 95.272 107.597 94.92 106.472 94.3414L104.642 97.8986ZM111.253 99.272C112.36 99.272 113.432 99.2028 114.467 99.0617L113.927 95.0983C113.085 95.2132 112.194 95.272 111.253 95.272V99.272ZM114.467 99.0617C115.423 98.9313 116.441 98.7797 117.521 98.6069L116.889 94.6571C115.836 94.8257 114.848 94.9727 113.927 95.0983L114.467 99.0617ZM115.205 96.632V106.744H119.205V96.632H115.205ZM116.736 104.8C115.636 105.065 114.257 105.267 112.579 105.389L112.871 109.379C114.692 109.245 116.299 109.02 117.674 108.688L116.736 104.8ZM112.531 105.393C110.829 105.56 109.338 105.64 108.053 105.64V109.64C109.498 109.64 111.123 109.55 112.919 109.375L112.531 105.393ZM108.053 105.64C101.078 105.64 96.5898 103.768 94.0037 100.509L90.8703 102.995C94.5136 107.587 100.436 109.64 108.053 109.64V105.64ZM94.0037 100.509C91.2857 97.0835 89.765 91.7825 89.765 84.28H85.765C85.765 92.2228 87.3589 98.5699 90.8703 102.995L94.0037 100.509ZM129.357 60.92V58.92H127.357V60.92H129.357ZM141.837 60.92H143.837V58.92H141.837V60.92ZM141.837 107V109H143.837V107H141.837ZM129.357 107H127.357V109H129.357V107ZM129.357 62.92H141.837V58.92H129.357V62.92ZM139.837 60.92V107H143.837V60.92H139.837ZM141.837 105H129.357V109H141.837V105ZM131.357 107V60.92H127.357V107H131.357ZM155.928 107H153.928V109H155.928V107ZM155.928 69.688H157.928V69.3015L157.784 68.9429L155.928 69.688ZM152.408 60.92V58.92H149.449L150.551 61.6651L152.408 60.92ZM180.376 62.52L179.595 64.3615L179.609 64.3671L179.622 64.3726L180.376 62.52ZM186.008 67.768L187.796 66.8736V66.8736L186.008 67.768ZM183.639 90.616L184.997 92.0848L183.639 90.616ZM168.408 94.52V92.52H166.408V94.52H168.408ZM168.408 107V109H170.408V107H168.408ZM168.408 85.368H166.408V87.368H168.408V85.368ZM172.952 83.704L171.482 82.3474L171.468 82.363L171.454 82.3788L172.952 83.704ZM173.911 72.824L172 73.4122L172.01 73.4454L172.022 73.4782L173.911 72.824ZM172.055 70.584L171.161 72.3729L171.214 72.3991L171.268 72.4223L172.055 70.584ZM168.408 69.944V67.944H166.408V69.944H168.408ZM157.928 107V69.688H153.928V107H157.928ZM157.784 68.9429L154.264 60.1749L150.551 61.6651L154.071 70.4331L157.784 68.9429ZM152.408 62.92H170.84V58.92H152.408V62.92ZM170.84 62.92C174.512 62.92 177.403 63.4326 179.595 64.3615L181.156 60.6785C178.313 59.474 174.847 58.92 170.84 58.92V62.92ZM179.622 64.3726C181.68 65.2099 183.194 66.6136 184.219 68.6624L187.796 66.8736C186.346 63.973 184.105 61.8781 181.129 60.6674L179.622 64.3726ZM184.219 68.6624C185.262 70.7493 185.863 73.7714 185.863 77.88H189.863C189.863 73.4553 189.228 69.736 187.796 66.8736L184.219 68.6624ZM185.863 77.88C185.863 83.5062 184.512 87.0858 182.282 89.1472L184.997 92.0848C188.399 88.9409 189.863 84.0298 189.863 77.88H185.863ZM182.282 89.1472C179.981 91.2736 176.296 92.52 170.84 92.52V96.52C176.818 96.52 181.666 95.1637 184.997 92.0848L182.282 89.1472ZM170.84 92.52H168.408V96.52H170.84V92.52ZM166.408 94.52V107H170.408V94.52H166.408ZM168.408 105H155.928V109H168.408V105ZM168.408 87.368C170.8 87.368 172.96 86.7131 174.449 85.0291L171.454 82.3788C170.98 82.9136 170.111 83.368 168.408 83.368V87.368ZM174.421 85.0606C175.983 83.3684 176.488 80.7174 176.488 77.752H172.488C172.488 80.5039 171.968 81.8209 171.482 82.3474L174.421 85.0606ZM176.488 77.752C176.488 75.5095 176.296 73.5987 175.801 72.1698L172.022 73.4782C172.295 74.2679 172.488 75.6425 172.488 77.752H176.488ZM175.823 72.2358C175.345 70.683 174.383 69.4057 172.843 68.7457L171.268 72.4223C171.52 72.5303 171.795 72.7463 172 73.4122L175.823 72.2358ZM172.95 68.7951C171.694 68.1672 170.118 67.944 168.408 67.944V71.944C169.855 71.944 170.71 72.1475 171.161 72.3729L172.95 68.7951ZM166.408 69.944V85.368H170.408V69.944H166.408ZM196.525 60.92V58.92H193.567L194.669 61.6651L196.525 60.92ZM227.181 60.92L229.147 61.2886L229.591 58.92H227.181V60.92ZM225.261 71.16V73.16H226.921L227.227 71.5286L225.261 71.16ZM212.525 71.16V69.16H210.525V71.16H212.525ZM212.525 78.2H210.525V80.2H212.525V78.2ZM224.493 78.2L226.459 78.5686L226.903 76.2H224.493V78.2ZM222.573 88.44V90.44H224.233L224.539 88.8086L222.573 88.44ZM212.525 88.44V86.44H210.525V88.44H212.525ZM212.525 96.76H210.525V98.76H212.525V96.76ZM227.629 96.76L229.595 97.1286L230.039 94.76H227.629V96.76ZM225.709 107V109H227.369L227.675 107.369L225.709 107ZM200.045 107H198.045V109H200.045V107ZM200.045 69.688H202.045V69.3015L201.901 68.9429L200.045 69.688ZM196.525 62.92H227.181V58.92H196.525V62.92ZM225.215 60.5514L223.295 70.7914L227.227 71.5286L229.147 61.2886L225.215 60.5514ZM225.261 69.16H212.525V73.16H225.261V69.16ZM210.525 71.16V78.2H214.525V71.16H210.525ZM212.525 80.2H224.493V76.2H212.525V80.2ZM222.527 77.8314L220.607 88.0714L224.539 88.8086L226.459 78.5686L222.527 77.8314ZM222.573 86.44H212.525V90.44H222.573V86.44ZM210.525 88.44V96.76H214.525V88.44H210.525ZM212.525 98.76H227.629V94.76H212.525V98.76ZM225.663 96.3914L223.743 106.631L227.675 107.369L229.595 97.1286L225.663 96.3914ZM225.709 105H200.045V109H225.709V105ZM202.045 107V69.688H198.045V107H202.045ZM201.901 68.9429L198.381 60.1749L194.669 61.6651L198.189 70.4331L201.901 68.9429ZM254.316 95.864L253.313 94.1331V94.1331L254.316 95.864ZM254.956 91.832L256.442 90.4941L254.956 91.832ZM252.908 90.552L252.068 92.3674L252.089 92.377L252.11 92.3861L252.908 90.552ZM246.124 87.416L246.963 85.6006L246.956 85.5974L246.124 87.416ZM240.299 82.808L241.929 81.649L240.299 82.808ZM241.9 63.928L243.275 65.3799L243.276 65.3792L241.9 63.928ZM254.124 60.344V58.344H254.116L254.108 58.3441L254.124 60.344ZM260.523 60.664L260.303 62.6518L260.523 60.664ZM265.132 61.368L264.698 63.3204L264.732 63.3281L264.767 63.3346L265.132 61.368ZM266.859 61.688L268.844 61.9346L269.077 60.0646L267.224 59.7214L266.859 61.688ZM265.579 71.992L265.341 73.9778L267.319 74.215L267.564 72.2385L265.579 71.992ZM263.979 71.8L263.731 73.7846L263.741 73.7858L263.979 71.8ZM260.139 71.48L259.973 73.4731L260.001 73.4754L260.029 73.4769L260.139 71.48ZM252.139 71.992L253.111 73.7403L253.126 73.7317L253.142 73.7229L252.139 71.992ZM251.883 76.216L250.648 77.7886L250.684 77.8169L250.721 77.8435L251.883 76.216ZM254.38 77.56L253.574 79.3906L253.581 79.3938L254.38 77.56ZM259.82 79.928L260.627 78.0981L260.618 78.0942L259.82 79.928ZM266.156 84.728L264.508 85.8626L264.514 85.8713L264.521 85.8799L266.156 84.728ZM264.427 103.736L265.865 105.126L264.427 103.736ZM252.204 107.64V109.64H252.211L252.219 109.64L252.204 107.64ZM244.331 107.064L244.643 105.088L244.626 105.086L244.609 105.083L244.331 107.064ZM237.868 105.848L235.883 105.601L235.664 107.359L237.382 107.788L237.868 105.848ZM239.148 95.544L239.476 93.5712L237.42 93.2285L237.163 95.2974L239.148 95.544ZM240.684 95.8L240.355 97.7728L240.368 97.7749L240.684 95.8ZM244.908 96.312L245.102 94.3214L244.908 96.312ZM250.667 98.568C252.416 98.568 254.054 98.3264 255.318 97.5949L253.313 94.1331C252.956 94.3402 252.161 94.568 250.667 94.568V98.568ZM255.318 97.5949C256.842 96.7122 257.532 95.2216 257.532 93.56H253.532C253.532 93.8413 253.479 93.9647 253.459 94.0025C253.445 94.0277 253.42 94.0715 253.313 94.1331L255.318 97.5949ZM257.532 93.56C257.532 92.4755 257.237 91.3772 256.442 90.4941L253.469 93.1699C253.47 93.171 253.471 93.1723 253.473 93.1762C253.476 93.1804 253.482 93.1925 253.49 93.2165C253.506 93.2653 253.532 93.3717 253.532 93.56H257.532ZM256.442 90.4941C255.765 89.7419 254.761 89.1768 253.705 88.7179L252.11 92.3861C253.017 92.7805 253.378 93.0688 253.469 93.1699L256.442 90.4941ZM253.747 88.7366L246.963 85.6006L245.284 89.2314L252.068 92.3674L253.747 88.7366ZM246.956 85.5974C244.701 84.5657 243.058 83.2364 241.929 81.649L238.67 83.967C240.271 86.2196 242.511 87.9623 245.291 89.2346L246.956 85.5974ZM241.929 81.649C240.905 80.2086 240.251 77.8934 240.251 74.424H236.251C236.251 78.2932 236.963 81.5674 238.67 83.967L241.929 81.649ZM240.251 74.424C240.251 70.0545 241.38 67.1751 243.275 65.3799L240.524 62.4761C237.555 65.2889 236.251 69.4068 236.251 74.424H240.251ZM243.276 65.3792C245.204 63.5503 248.655 62.3852 254.139 62.3439L254.108 58.3441C248.242 58.3882 243.544 59.6123 240.523 62.4767L243.276 65.3792ZM254.124 62.344C256.411 62.344 258.47 62.4481 260.303 62.6518L260.744 58.6762C258.737 58.4532 256.529 58.344 254.124 58.344V62.344ZM260.303 62.6518C262.19 62.8615 263.646 63.0866 264.698 63.3204L265.565 59.4156C264.313 59.1373 262.697 58.8932 260.744 58.6762L260.303 62.6518ZM264.767 63.3346C264.85 63.3499 264.898 63.3588 264.977 63.3733C265.078 63.3921 264.926 63.3639 265.027 63.3826C265.029 63.383 265.031 63.3834 265.033 63.3838C265.035 63.3841 265.037 63.3845 265.039 63.3849C265.046 63.3861 265.045 63.386 265.052 63.3872C265.097 63.3956 265.031 63.3833 265.076 63.3917C265.078 63.3921 265.08 63.3925 265.082 63.3929C265.084 63.3933 265.086 63.3936 265.088 63.394C265.111 63.3981 265.078 63.3921 265.1 63.3963C265.103 63.3966 265.105 63.397 265.107 63.3974C265.109 63.3978 265.111 63.3981 265.113 63.3985C265.115 63.3989 265.117 63.3992 265.119 63.3996C265.121 63.4 265.123 63.4004 265.125 63.4007C265.127 63.4011 265.129 63.4015 265.131 63.4018C265.133 63.4022 265.135 63.4026 265.137 63.403C265.139 63.4033 265.141 63.4037 265.143 63.4041C265.145 63.4044 265.147 63.4048 265.149 63.4052C265.173 63.4097 265.136 63.4029 265.16 63.4074C265.162 63.4077 265.164 63.4081 265.166 63.4085C265.168 63.4088 265.17 63.4092 265.172 63.4096C265.217 63.4179 265.151 63.4056 265.196 63.4139C265.198 63.4143 265.2 63.4146 265.202 63.415C265.204 63.4154 265.206 63.4157 265.208 63.4161C265.209 63.4164 265.211 63.4168 265.213 63.4172C265.215 63.4175 265.217 63.4179 265.219 63.4182C265.304 63.434 265.18 63.4111 265.265 63.4267C265.277 63.4289 265.265 63.4267 265.276 63.4289C265.278 63.4292 265.28 63.4296 265.282 63.4299C265.284 63.4303 265.286 63.4306 265.288 63.4309C265.3 63.4332 265.287 63.4308 265.299 63.433C265.308 63.4347 265.301 63.4334 265.31 63.4351C265.34 63.4405 265.303 63.4338 265.333 63.4392C265.341 63.4407 265.347 63.4418 265.355 63.4433C265.497 63.4697 265.385 63.449 265.523 63.4746C265.752 63.5168 265.907 63.5456 266.063 63.5746C266.097 63.5809 266.236 63.6066 266.252 63.6096C266.284 63.6155 266.299 63.6182 266.327 63.6233C266.33 63.6239 266.332 63.6243 266.335 63.6249C266.351 63.6279 266.327 63.6233 266.343 63.6264C266.375 63.6322 266.327 63.6235 266.359 63.6292C266.373 63.6319 266.359 63.6293 266.373 63.632C266.375 63.6323 266.379 63.633 266.38 63.6333C266.385 63.634 266.38 63.6332 266.384 63.6339C266.384 63.634 266.385 63.6341 266.386 63.6342C266.386 63.6344 266.387 63.6345 266.387 63.6346C266.506 63.6565 266.321 63.6222 266.435 63.6433C266.472 63.6502 266.435 63.6435 266.468 63.6496C266.488 63.6532 266.462 63.6483 266.48 63.6518C266.484 63.6525 266.481 63.652 266.485 63.6526C266.485 63.6526 266.485 63.6527 266.485 63.6527C266.485 63.6527 266.486 63.6528 266.486 63.6528C266.487 63.653 266.486 63.6528 266.487 63.653C266.489 63.6534 266.486 63.6529 266.489 63.6533C266.492 63.6539 266.488 63.6533 266.492 63.6539C266.494 63.6543 266.491 63.6538 266.494 63.6543C266.495 63.6545 266.493 63.6541 266.494 63.6544C266.495 63.6545 266.495 63.6544 266.495 63.6545C266.495 63.6545 266.495 63.6545 266.495 63.6545C266.495 63.6545 266.495 63.6545 266.495 63.6545C266.495 63.6545 266.495 63.6545 266.495 63.6546C266.495 63.6546 266.495 63.6546 266.495 63.6546C266.495 63.6546 266.495 63.6546 266.495 63.6546C266.495 63.6546 266.495 63.6546 266.859 61.688C267.224 59.7214 267.224 59.7214 267.224 59.7214C267.224 59.7214 267.224 59.7214 267.224 59.7214C267.224 59.7214 267.224 59.7214 267.224 59.7214C267.224 59.7214 267.223 59.7214 267.223 59.7214C267.223 59.7214 267.223 59.7213 267.223 59.7213C267.223 59.7213 267.223 59.7213 267.223 59.7213C267.223 59.7213 267.223 59.7213 267.223 59.7213C267.223 59.7213 267.223 59.7212 267.223 59.7212C267.223 59.7212 267.222 59.7212 267.222 59.7212C267.222 59.7212 267.222 59.7212 267.222 59.7211C267.222 59.7211 267.221 59.721 267.221 59.7209C267.221 59.7209 267.221 59.7209 267.22 59.7208C267.22 59.7208 267.22 59.7208 267.22 59.7208C267.22 59.7208 267.22 59.7208 267.22 59.7207C267.22 59.7207 267.22 59.7207 267.22 59.7207C267.219 59.7207 267.219 59.7206 267.219 59.7206C267.219 59.7206 267.219 59.7205 267.219 59.7205C267.218 59.7204 267.217 59.7203 267.217 59.7202C267.21 59.719 267.208 59.7185 267.197 59.7164C267.184 59.714 267.147 59.7072 267.116 59.7014C267.039 59.6872 266.941 59.669 266.792 59.6414C266.707 59.6258 266.651 59.6154 266.549 59.5964C266.532 59.5933 266.428 59.5742 266.407 59.5702C266.372 59.5637 266.367 59.5628 266.331 59.5561C266.325 59.555 266.298 59.5501 266.292 59.5489C266.288 59.5482 266.276 59.5459 266.272 59.5452C266.27 59.5448 266.264 59.5437 266.262 59.5433C266.26 59.543 266.258 59.5427 266.257 59.5424C266.255 59.5421 266.253 59.5417 266.252 59.5414C266.246 59.5403 266.237 59.5388 266.231 59.5377C266.23 59.5373 266.228 59.537 266.226 59.5367C266.224 59.5364 266.223 59.5361 266.221 59.5358C266.219 59.5354 266.218 59.5351 266.216 59.5348C266.214 59.5345 266.212 59.5342 266.211 59.5339C266.203 59.5324 266.177 59.5276 266.169 59.5261C266.127 59.5183 266.126 59.5182 266.083 59.5102C266.045 59.5032 265.943 59.4843 265.901 59.4764C265.697 59.4388 265.717 59.4424 265.496 59.4014L264.767 63.3346ZM264.875 61.4414L263.595 71.7454L267.564 72.2385L268.844 61.9346L264.875 61.4414ZM265.579 71.992C265.818 70.0062 265.818 70.0062 265.818 70.0062C265.818 70.0062 265.818 70.0062 265.818 70.0062C265.818 70.0062 265.818 70.0062 265.818 70.0062C265.818 70.0062 265.818 70.0062 265.818 70.0062C265.818 70.0062 265.818 70.0062 265.818 70.0062C265.818 70.0062 265.818 70.0062 265.818 70.0062C265.811 70.0055 265.824 70.007 265.817 70.0062C265.817 70.0062 265.817 70.0062 265.817 70.0062C265.817 70.0062 265.817 70.0062 265.817 70.0062C265.817 70.0062 265.817 70.0061 265.817 70.0061C265.81 70.0054 265.823 70.0068 265.816 70.0061C265.802 70.0044 265.828 70.0075 265.814 70.0058C265.813 70.0057 265.813 70.0057 265.812 70.0055C265.706 69.9928 265.91 70.0173 265.804 70.0046C265.778 70.0014 265.827 70.0074 265.801 70.0043C265.798 70.0039 265.802 70.0043 265.799 70.0039C265.798 70.0039 265.798 70.0039 265.798 70.0039C265.798 70.0038 265.797 70.0038 265.797 70.0038C265.762 69.9995 265.831 70.0078 265.796 70.0036C265.763 69.9997 265.827 70.0074 265.794 70.0034C265.794 70.0034 265.794 70.0034 265.794 70.0033C265.793 70.0033 265.793 70.0033 265.793 70.0032C265.704 69.9926 265.875 70.0131 265.786 70.0024C265.654 69.9866 265.911 70.0174 265.779 70.0016C265.778 70.0015 265.778 70.0015 265.778 70.0014C265.777 70.0014 265.777 70.0014 265.777 70.0013C265.754 69.9986 265.797 70.0037 265.775 70.0011C265.774 70.001 265.774 70.001 265.774 70.001C265.773 70.0009 265.773 70.0009 265.773 70.0008C265.772 70.0008 265.772 70.0007 265.772 70.0007C265.771 70.0007 265.771 70.0006 265.771 70.0006C265.76 69.9993 265.779 70.0016 265.768 70.0003C265.698 69.9918 265.837 70.0085 265.766 70C265.734 69.9962 265.794 70.0033 265.762 69.9995C265.753 69.9985 265.751 69.9982 265.741 69.9971C265.741 69.997 265.74 69.9969 265.74 69.9969C265.739 69.9968 265.739 69.9968 265.738 69.9967C265.707 69.993 265.767 70.0002 265.736 69.9964C265.693 69.9913 265.773 70.0008 265.73 69.9957C265.721 69.9946 265.736 69.9965 265.727 69.9953C265.726 69.9953 265.726 69.9952 265.725 69.9952C265.725 69.9951 265.724 69.995 265.724 69.995C265.721 69.9947 265.724 69.9949 265.721 69.9946C265.72 69.9946 265.72 69.9945 265.719 69.9944C265.719 69.9944 265.718 69.9943 265.718 69.9942C265.629 69.9836 265.8 70.0042 265.711 69.9935C265.677 69.9893 265.743 69.9973 265.708 69.9931C265.708 69.993 265.707 69.993 265.707 69.9929C265.706 69.9928 265.705 69.9928 265.705 69.9927C265.704 69.9926 265.704 69.9926 265.703 69.9925C265.703 69.9924 265.702 69.9924 265.702 69.9923C265.688 69.9907 265.712 69.9935 265.698 69.9919C265.564 69.9758 265.825 70.0071 265.691 69.9911C265.546 69.9737 265.822 70.0067 265.677 69.9893C265.676 69.9892 265.676 69.9892 265.675 69.9891C265.674 69.989 265.674 69.9889 265.673 69.9889C265.643 69.9853 265.699 69.992 265.669 69.9884C265.537 69.9726 265.793 70.0033 265.662 69.9875C265.661 69.9874 265.66 69.9873 265.66 69.9873C265.659 69.9872 265.658 69.9871 265.658 69.987C265.657 69.9869 265.656 69.9869 265.656 69.9868C265.655 69.9867 265.654 69.9866 265.654 69.9865C265.653 69.9865 265.652 69.9864 265.652 69.9863C265.651 69.9862 265.65 69.9861 265.65 69.9861C265.649 69.986 265.648 69.9859 265.648 69.9858C265.647 69.9857 265.646 69.9857 265.646 69.9856C265.569 69.9764 265.705 69.9927 265.629 69.9836C265.628 69.9835 265.627 69.9834 265.627 69.9833C265.626 69.9832 265.625 69.9831 265.624 69.983C265.605 69.9807 265.639 69.9848 265.62 69.9825C265.54 69.9729 265.691 69.991 265.611 69.9814C265.579 69.9776 265.639 69.9847 265.607 69.9809C265.606 69.9808 265.605 69.9807 265.604 69.9806C265.604 69.9805 265.603 69.9804 265.602 69.9804C265.455 69.9627 265.74 69.9969 265.593 69.9792C265.558 69.9751 265.608 69.9811 265.574 69.9769C265.573 69.9768 265.572 69.9768 265.571 69.9767C265.57 69.9766 265.57 69.9765 265.569 69.9764C265.494 69.9674 265.638 69.9847 265.564 69.9758C265.541 69.9731 265.576 69.9773 265.554 69.9746C265.463 69.9637 265.639 69.9848 265.549 69.9739C265.548 69.9738 265.547 69.9737 265.546 69.9736C265.545 69.9735 265.544 69.9734 265.543 69.9733C265.543 69.9732 265.542 69.9731 265.541 69.973C265.54 69.9729 265.539 69.9728 265.538 69.9727C265.424 69.959 265.647 69.9857 265.533 69.9721C265.524 69.9709 265.521 69.9707 265.512 69.9695C265.511 69.9694 265.51 69.9693 265.509 69.9692C265.508 69.9691 265.507 69.9689 265.506 69.9688C265.494 69.9674 265.513 69.9696 265.501 69.9682C265.411 69.9574 265.585 69.9783 265.495 69.9675C265.494 69.9674 265.493 69.9673 265.492 69.9672C265.491 69.967 265.49 69.9669 265.489 69.9668C265.446 69.9617 265.526 69.9713 265.484 69.9661C265.399 69.956 265.562 69.9756 265.478 69.9655C265.477 69.9653 265.476 69.9652 265.475 69.9651C265.474 69.965 265.473 69.9649 265.472 69.9648C265.42 69.9586 265.518 69.9703 265.466 69.9641C265.465 69.9639 265.464 69.9638 265.463 69.9637C265.462 69.9636 265.461 69.9635 265.46 69.9634C265.459 69.9632 265.458 69.9631 265.457 69.963C265.456 69.9629 265.455 69.9628 265.454 69.9626C265.394 69.9553 265.509 69.9692 265.448 69.9619C265.447 69.9618 265.446 69.9617 265.445 69.9616C265.444 69.9614 265.443 69.9613 265.442 69.9612C265.441 69.9611 265.44 69.961 265.439 69.9608C265.438 69.9607 265.437 69.9606 265.436 69.9605C265.366 69.952 265.501 69.9682 265.43 69.9597C265.429 69.9596 265.428 69.9595 265.427 69.9594C265.426 69.9592 265.425 69.9591 265.424 69.959C265.423 69.9589 265.422 69.9587 265.421 69.9586C265.42 69.9585 265.419 69.9584 265.418 69.9582C265.329 69.9476 265.5 69.9682 265.412 69.9575C265.41 69.9574 265.409 69.9572 265.408 69.9571C265.407 69.957 265.406 69.9569 265.405 69.9567C265.404 69.9566 265.403 69.9565 265.402 69.9564C265.401 69.9562 265.4 69.9561 265.399 69.956C265.299 69.944 265.492 69.9671 265.392 69.9552C265.391 69.9551 265.39 69.9549 265.389 69.9548C265.388 69.9547 265.387 69.9545 265.386 69.9544C265.385 69.9543 265.384 69.9542 265.383 69.954C265.382 69.9539 265.38 69.9538 265.379 69.9536C265.269 69.9404 265.483 69.9661 265.373 69.9529C265.372 69.9527 265.371 69.9526 265.37 69.9525C265.368 69.9523 265.367 69.9522 265.366 69.9521C265.365 69.9519 265.364 69.9518 265.363 69.9517C265.362 69.9515 265.361 69.9514 265.36 69.9513C265.238 69.9366 265.475 69.9651 265.353 69.9505C265.201 69.9322 265.491 69.967 265.339 69.9488C265.206 69.9328 265.466 69.964 265.332 69.948C265.178 69.9295 265.48 69.9657 265.326 69.9472C265.324 69.947 265.323 69.9469 265.322 69.9468C265.321 69.9466 265.32 69.9465 265.319 69.9463C265.163 69.9277 265.467 69.9641 265.312 69.9455C265.153 69.9265 265.456 69.9628 265.297 69.9438C265.296 69.9437 265.295 69.9435 265.294 69.9434C265.293 69.9432 265.291 69.9431 265.29 69.9429C265.139 69.9248 265.434 69.9602 265.283 69.9421C265.282 69.9419 265.281 69.9418 265.279 69.9416C265.278 69.9415 265.277 69.9413 265.276 69.9412C265.275 69.9411 265.273 69.9409 265.272 69.9408C265.271 69.9406 265.27 69.9405 265.268 69.9403C265.123 69.9229 265.399 69.956 265.254 69.9386C265.253 69.9384 265.251 69.9383 265.25 69.9381C265.249 69.938 265.248 69.9378 265.246 69.9377C265.109 69.9212 265.376 69.9532 265.239 69.9368C265.238 69.9366 265.236 69.9365 265.235 69.9363C265.234 69.9362 265.233 69.936 265.231 69.9359C265.23 69.9357 265.229 69.9356 265.227 69.9354C265.226 69.9353 265.225 69.9351 265.224 69.9349C265.093 69.9193 265.339 69.9487 265.208 69.9331C265.207 69.933 265.206 69.9328 265.204 69.9326C265.203 69.9325 265.202 69.9323 265.201 69.9322C265.09 69.9188 265.304 69.9446 265.193 69.9312C265.191 69.9311 265.19 69.9309 265.189 69.9308C265.188 69.9306 265.186 69.9305 265.185 69.9303C265.184 69.9301 265.182 69.93 265.181 69.9298C265.18 69.9297 265.178 69.9295 265.177 69.9294C265.042 69.9131 265.296 69.9437 265.161 69.9274C265.16 69.9273 265.158 69.9271 265.157 69.927C265.156 69.9268 265.154 69.9266 265.153 69.9265C265.049 69.9139 265.25 69.9381 265.145 69.9255C265.144 69.9254 265.142 69.9252 265.141 69.925C265.14 69.9249 265.138 69.9247 265.137 69.9245C265.136 69.9244 265.134 69.9242 265.133 69.924C265.131 69.9239 265.13 69.9237 265.129 69.9236C265.011 69.9094 265.23 69.9357 265.112 69.9216C265.111 69.9214 265.109 69.9212 265.108 69.9211C265.107 69.9209 265.105 69.9207 265.104 69.9206C265.007 69.9089 265.193 69.9312 265.096 69.9196C265.094 69.9194 265.093 69.9192 265.091 69.9191C265.09 69.9189 265.089 69.9187 265.087 69.9186C265.086 69.9184 265.084 69.9182 265.083 69.9181C265.081 69.9179 265.08 69.9177 265.079 69.9175C265.002 69.9084 265.138 69.9247 265.062 69.9155C265.06 69.9153 265.059 69.9151 265.057 69.915C265.056 69.9148 265.054 69.9146 265.053 69.9145C264.964 69.9038 265.133 69.9241 265.044 69.9134C265.043 69.9132 265.041 69.9131 265.04 69.9129C265.038 69.9127 265.037 69.9125 265.036 69.9124C265.034 69.9122 265.033 69.912 265.031 69.9118C265.03 69.9117 265.028 69.9115 265.027 69.9113C264.972 69.9047 265.064 69.9158 265.009 69.9092C264.891 69.895 265.119 69.9224 265 69.9081C264.92 69.8986 265.071 69.9166 264.991 69.9071C264.99 69.9069 264.988 69.9067 264.987 69.9065C264.985 69.9063 264.984 69.9062 264.982 69.906C264.862 69.8915 265.094 69.9193 264.973 69.9049C264.916 69.898 265.012 69.9095 264.955 69.9027C264.953 69.9025 264.952 69.9023 264.95 69.9021C264.949 69.902 264.947 69.9018 264.946 69.9016C264.9 69.8962 264.982 69.9059 264.936 69.9005C264.935 69.9003 264.933 69.9001 264.932 69.8999C264.93 69.8997 264.929 69.8996 264.927 69.8994C264.926 69.8992 264.924 69.899 264.922 69.8988C264.921 69.8986 264.919 69.8984 264.918 69.8982C264.884 69.8942 264.933 69.9 264.899 69.896C264.897 69.8958 264.896 69.8956 264.894 69.8954C264.893 69.8952 264.891 69.895 264.889 69.8948C264.843 69.8892 264.927 69.8993 264.88 69.8937C264.878 69.8935 264.877 69.8933 264.875 69.8931C264.874 69.8929 264.872 69.8927 264.87 69.8925C264.869 69.8924 264.867 69.8922 264.865 69.892C264.864 69.8918 264.862 69.8916 264.861 69.8914C264.826 69.8872 264.876 69.8932 264.841 69.8891C264.84 69.8889 264.838 69.8887 264.836 69.8885C264.835 69.8883 264.833 69.8881 264.831 69.8879C264.796 69.8837 264.857 69.8909 264.822 69.8867C264.82 69.8865 264.818 69.8863 264.817 69.8861C264.815 69.8859 264.813 69.8857 264.812 69.8855C264.81 69.8853 264.808 69.8851 264.807 69.8849C264.805 69.8847 264.803 69.8845 264.802 69.8843C264.766 69.88 264.818 69.8862 264.782 69.8819C264.78 69.8817 264.778 69.8815 264.777 69.8813C264.775 69.8811 264.773 69.8809 264.772 69.8807C264.749 69.878 264.784 69.8822 264.762 69.8795C264.76 69.8793 264.758 69.8791 264.756 69.8789C264.755 69.8787 264.753 69.8785 264.751 69.8783C264.75 69.8781 264.748 69.8779 264.746 69.8777C264.745 69.8775 264.743 69.8773 264.741 69.877C264.732 69.8759 264.73 69.8757 264.721 69.8746C264.719 69.8744 264.717 69.8742 264.715 69.874C264.714 69.8737 264.712 69.8735 264.71 69.8733C264.708 69.8731 264.707 69.8729 264.705 69.8727C264.703 69.8725 264.701 69.8723 264.7 69.8721C264.698 69.8719 264.696 69.8717 264.694 69.8714C264.693 69.8712 264.691 69.871 264.689 69.8708C264.688 69.8706 264.686 69.8704 264.684 69.8702C264.682 69.87 264.68 69.8698 264.679 69.8696C264.669 69.8684 264.667 69.8681 264.658 69.867C264.656 69.8668 264.654 69.8666 264.652 69.8664C264.65 69.8662 264.649 69.8659 264.647 69.8657C264.645 69.8655 264.643 69.8653 264.642 69.8651C264.64 69.8649 264.638 69.8647 264.636 69.8644C264.634 69.8642 264.633 69.864 264.631 69.8638C264.629 69.8636 264.627 69.8634 264.625 69.8632C264.624 69.8629 264.622 69.8627 264.62 69.8625C264.618 69.8623 264.616 69.8621 264.615 69.8619C264.605 69.8607 264.603 69.8604 264.593 69.8592C264.591 69.859 264.589 69.8588 264.587 69.8586C264.585 69.8584 264.584 69.8581 264.582 69.8579C264.58 69.8577 264.578 69.8575 264.576 69.8573C264.574 69.857 264.573 69.8568 264.571 69.8566C264.569 69.8564 264.567 69.8562 264.565 69.8559C264.563 69.8557 264.562 69.8555 264.56 69.8553C264.558 69.8551 264.556 69.8548 264.554 69.8546C264.552 69.8544 264.551 69.8542 264.549 69.8539C264.539 69.8528 264.536 69.8525 264.526 69.8513C264.524 69.851 264.523 69.8508 264.521 69.8506C264.519 69.8504 264.517 69.8501 264.515 69.8499C264.513 69.8497 264.511 69.8495 264.509 69.8492C264.508 69.849 264.506 69.8488 264.504 69.8486C264.502 69.8483 264.5 69.8481 264.498 69.8479C264.496 69.8477 264.494 69.8474 264.492 69.8472C264.49 69.847 264.489 69.8467 264.487 69.8465C264.485 69.8463 264.483 69.8461 264.481 69.8458C264.479 69.8456 264.477 69.8454 264.475 69.8451C264.473 69.8449 264.471 69.8447 264.47 69.8445C264.468 69.8442 264.466 69.844 264.464 69.8438C264.462 69.8435 264.46 69.8433 264.458 69.8431C264.456 69.8428 264.454 69.8426 264.452 69.8424C264.45 69.8421 264.448 69.8419 264.446 69.8417C264.445 69.8415 264.443 69.8412 264.441 69.841C264.439 69.8408 264.437 69.8405 264.435 69.8403C264.433 69.8401 264.431 69.8398 264.429 69.8396C264.427 69.8394 264.425 69.8391 264.423 69.8389C264.421 69.8387 264.419 69.8384 264.417 69.8382C264.415 69.838 264.413 69.8377 264.412 69.8375C264.41 69.8373 264.408 69.837 264.406 69.8368C264.404 69.8366 264.402 69.8363 264.4 69.8361C264.398 69.8358 264.396 69.8356 264.394 69.8354C264.392 69.8351 264.39 69.8349 264.388 69.8347C264.386 69.8344 264.384 69.8342 264.382 69.834C264.38 69.8337 264.378 69.8335 264.376 69.8333C264.374 69.833 264.372 69.8328 264.37 69.8325C264.368 69.8323 264.366 69.8321 264.364 69.8318C264.362 69.8316 264.36 69.8313 264.358 69.8311C264.356 69.8309 264.354 69.8306 264.352 69.8304C264.35 69.8302 264.348 69.8299 264.346 69.8297C264.344 69.8294 264.342 69.8292 264.34 69.829C264.338 69.8287 264.336 69.8285 264.334 69.8282C264.332 69.828 264.33 69.8277 264.328 69.8275C264.326 69.8273 264.324 69.827 264.322 69.8268C264.32 69.8265 264.318 69.8263 264.316 69.8261C264.314 69.8258 264.312 69.8256 264.31 69.8253C264.308 69.8251 264.306 69.8248 264.304 69.8246C264.302 69.8244 264.3 69.8241 264.298 69.8239C264.296 69.8236 264.294 69.8234 264.292 69.8231C264.29 69.8229 264.288 69.8227 264.286 69.8224C264.284 69.8222 264.282 69.8219 264.28 69.8217C264.278 69.8214 264.276 69.8212 264.274 69.8209C264.272 69.8207 264.269 69.8204 264.267 69.8202C264.265 69.82 264.263 69.8197 264.261 69.8195C264.259 69.8192 264.257 69.819 264.255 69.8187C264.253 69.8185 264.251 69.8182 264.249 69.818C264.247 69.8177 264.245 69.8175 264.243 69.8172C264.241 69.817 264.239 69.8167 264.236 69.8165C264.234 69.8162 264.232 69.816 264.23 69.8157C264.228 69.8155 264.226 69.8152 264.224 69.815C264.222 69.8147 264.22 69.8145 264.218 69.8142L263.741 73.7858C264.271 73.8493 264.678 73.8982 264.941 73.9298C265.075 73.9458 265.175 73.9578 265.241 73.9658C265.341 73.9778 265.233 73.9647 265.316 73.9748C265.332 73.9766 265.323 73.9756 265.335 73.977C265.347 73.9785 265.328 73.9762 265.34 73.9776C265.34 73.9776 265.34 73.9775 265.34 73.9776C265.34 73.9776 265.34 73.9776 265.34 73.9776C265.34 73.9776 265.34 73.9776 265.34 73.9776C265.344 73.9781 265.337 73.9772 265.341 73.9777C265.341 73.9777 265.341 73.9777 265.341 73.9777C265.341 73.9778 265.341 73.9777 265.341 73.9777C265.341 73.9777 265.341 73.9777 265.341 73.9778C265.341 73.9778 265.341 73.9778 265.579 71.992ZM264.228 69.8154C263.142 69.6797 261.812 69.5699 260.25 69.4831L260.029 73.4769C261.539 73.5608 262.769 73.6643 263.731 73.7846L264.228 69.8154ZM260.306 69.4869C258.718 69.3546 257.169 69.288 255.66 69.288V73.288C257.051 73.288 258.489 73.3494 259.973 73.4731L260.306 69.4869ZM255.66 69.288C253.973 69.288 252.389 69.5365 251.137 70.2611L253.142 73.7229C253.511 73.5088 254.274 73.288 255.66 73.288V69.288ZM251.168 70.2437C249.519 71.1597 248.988 72.8575 248.988 74.488H252.988C252.988 74.0627 253.055 73.8523 253.091 73.7741C253.107 73.7395 253.116 73.7326 253.111 73.7383C253.105 73.7447 253.101 73.7455 253.111 73.7403L251.168 70.2437ZM248.988 74.488C248.988 75.8592 249.63 76.9889 250.648 77.7886L253.119 74.6434C253.062 74.5987 253.029 74.5641 253.01 74.5424C253.001 74.5316 252.995 74.5237 252.992 74.5188C252.988 74.514 252.987 74.5115 252.987 74.5114C252.987 74.5112 252.987 74.5123 252.988 74.5142C252.989 74.5161 252.989 74.5177 252.989 74.5182C252.99 74.5203 252.988 74.5118 252.988 74.488H248.988ZM250.721 77.8435C251.475 78.3823 252.446 78.8942 253.574 79.3906L255.185 75.7294C254.18 75.2872 253.486 74.903 253.046 74.5885L250.721 77.8435ZM253.581 79.3938L259.021 81.7618L260.618 78.0942L255.178 75.7262L253.581 79.3938ZM259.012 81.7578C261.693 82.9403 263.459 84.3387 264.508 85.8626L267.803 83.5934C266.207 81.2773 263.749 79.4757 260.627 78.0982L259.012 81.7578ZM264.521 85.8799C265.511 87.2856 266.139 89.5032 266.139 92.792H270.139C270.139 89.0834 269.445 85.925 267.79 83.5761L264.521 85.8799ZM266.139 92.792C266.139 97.1854 264.997 100.269 262.99 102.346L265.865 105.126C268.807 102.083 270.139 97.8706 270.139 92.792H266.139ZM262.99 102.346C261.058 104.344 257.634 105.599 252.188 105.64L252.219 109.64C258.122 109.596 262.847 108.248 265.865 105.126L262.99 102.346ZM252.204 105.64C249.477 105.64 246.959 105.454 244.643 105.088L244.02 109.04C246.568 109.442 249.298 109.64 252.204 109.64V105.64ZM244.609 105.083C242.23 104.749 240.146 104.356 238.353 103.908L237.382 107.788C239.343 108.279 241.569 108.696 244.054 109.045L244.609 105.083ZM239.852 106.095L241.132 95.7906L237.163 95.2974L235.883 105.601L239.852 106.095ZM239.148 95.544C238.819 97.5168 238.819 97.5168 238.819 97.5168C238.819 97.5168 238.819 97.5168 238.819 97.5168C238.819 97.5168 238.819 97.5168 238.819 97.5168C238.819 97.5168 238.819 97.5168 238.819 97.5168C238.819 97.5168 238.819 97.5168 238.819 97.5168C238.819 97.5168 238.819 97.5168 238.819 97.5168C238.819 97.5169 238.819 97.5169 238.82 97.5169C238.82 97.517 238.819 97.5169 238.82 97.517C238.82 97.517 238.82 97.517 238.82 97.517C238.82 97.517 238.82 97.517 238.82 97.517C238.821 97.5172 238.821 97.5172 238.822 97.5173C238.824 97.5177 238.823 97.5174 238.825 97.5178C238.828 97.5183 238.828 97.5184 238.832 97.519C238.846 97.5213 238.828 97.5183 238.843 97.5208C238.853 97.5226 238.858 97.5233 238.873 97.5258C238.884 97.5277 238.87 97.5254 238.882 97.5274C238.882 97.5274 238.883 97.5275 238.883 97.5276C238.884 97.5276 238.884 97.5277 238.885 97.5278C238.885 97.5278 238.885 97.5279 238.886 97.528C238.886 97.528 238.887 97.5281 238.887 97.5282C238.894 97.5293 238.885 97.5279 238.892 97.529C238.903 97.5309 238.892 97.529 238.903 97.5308C238.925 97.5346 238.892 97.529 238.915 97.5328C238.957 97.5399 238.976 97.543 239.035 97.5528C239.168 97.575 239.053 97.5559 239.203 97.5808C239.213 97.5826 239.29 97.5953 239.305 97.5978C239.474 97.626 239.245 97.5879 239.419 97.6168C239.505 97.6312 239.393 97.6124 239.48 97.627C239.505 97.6311 239.519 97.6335 239.545 97.6378C239.618 97.65 239.605 97.6479 239.683 97.6608C239.873 97.6924 239.789 97.6785 239.995 97.7128C239.999 97.7135 240.001 97.7139 240.005 97.7145C240.023 97.7176 239.998 97.7133 240.016 97.7163C240.025 97.7179 240.028 97.7183 240.037 97.7198C240.047 97.7215 240.038 97.7199 240.048 97.7216C240.05 97.7219 240.051 97.7222 240.053 97.7225C240.055 97.7228 240.057 97.7231 240.059 97.7234C240.08 97.727 240.048 97.7216 240.069 97.7252C240.072 97.7256 240.078 97.7266 240.08 97.727C240.082 97.7273 240.084 97.7276 240.086 97.7279C240.087 97.7282 240.089 97.7285 240.091 97.7289C240.106 97.7314 240.087 97.7281 240.102 97.7307C240.11 97.732 240.105 97.7312 240.113 97.7325C240.115 97.7328 240.117 97.7331 240.119 97.7334C240.12 97.7337 240.122 97.734 240.124 97.7343C240.136 97.7364 240.156 97.7397 240.169 97.7418C240.293 97.7624 240.227 97.7515 240.355 97.7728L241.012 93.8272C240.757 93.7847 240.532 93.7471 240.34 93.7152C240.212 93.6939 239.924 93.6459 239.86 93.6352C239.761 93.6186 239.608 93.5931 239.572 93.5872C239.547 93.5831 239.509 93.5767 239.5 93.5752C239.494 93.5742 239.484 93.5725 239.482 93.5722C239.481 93.572 239.478 93.5715 239.478 93.5715C239.477 93.5714 239.477 93.5713 239.477 93.5713C239.477 93.5713 239.476 93.5712 239.476 93.5712C239.476 93.5712 239.476 93.5712 239.476 93.5712C239.476 93.5712 239.476 93.5712 239.476 93.5712C239.476 93.5712 239.476 93.5712 239.148 95.544ZM240.368 97.7749C241.492 97.9547 242.945 98.13 244.713 98.3025L245.102 94.3214C243.371 94.1526 242.009 93.9866 240.999 93.8251L240.368 97.7749ZM244.713 98.3025C246.538 98.4806 248.524 98.568 250.667 98.568V94.568C248.63 94.568 246.776 94.4848 245.102 94.3214L244.713 98.3025Z" fill="black" mask="url(#path-3-outside-1_12_2)"/>
</g>
<path d="M43.988 60.936C42.812 60.936 41.984 60.588 41.504 59.892C41.024 59.172 40.784 58.224 40.784 57.048C40.784 56.16 40.952 55.164 41.288 54.06C41.648 52.956 42.104 51.804 42.656 50.604C43.208 49.38 43.796 48.156 44.42 46.932C45.044 45.708 45.644 44.532 46.22 43.404C46.82 42.276 47.324 41.256 47.732 40.344C47.612 39.744 47.468 39.108 47.3 38.436C47.132 37.764 46.976 37.128 46.832 36.528C47.912 35.784 49.04 35.16 50.216 34.656C51.392 34.152 52.808 33.9 54.464 33.9C55.088 33.9 55.616 33.984 56.048 34.152C56.48 34.32 56.816 34.536 57.056 34.8C57.68 34.536 58.292 34.32 58.892 34.152C59.492 33.984 60.128 33.9 60.8 33.9C61.712 33.9 62.384 34.164 62.816 34.692C63.248 35.196 63.524 35.856 63.644 36.672C63.788 37.464 63.86 38.304 63.86 39.192C63.86 40.56 63.812 41.94 63.716 43.332C63.62 44.724 63.572 46.2 63.572 47.76C63.572 49.416 63.656 51.024 63.824 52.584C63.992 54.144 64.328 55.524 64.832 56.724C65.336 57.924 66.08 58.812 67.064 59.388C66.248 59.892 65.456 60.276 64.688 60.54C63.944 60.804 63.056 60.936 62.024 60.936C60.848 60.936 59.888 60.612 59.144 59.964C58.4 59.316 57.812 58.44 57.38 57.336C56.972 56.232 56.672 55.008 56.48 53.664H49.136C48.92 54.408 48.752 55.092 48.632 55.716C48.512 56.316 48.452 56.856 48.452 57.336C48.452 58.104 48.548 58.74 48.74 59.244C47.852 59.796 47.024 60.216 46.256 60.504C45.488 60.792 44.732 60.936 43.988 60.936ZM50.648 49.884H56.228C56.228 48.54 56.24 47.328 56.264 46.248C56.312 45.168 56.36 44.136 56.408 43.152C56.48 42.144 56.552 41.1 56.624 40.02H55.472C54.656 41.628 53.816 43.296 52.952 45.024C52.088 46.752 51.32 48.372 50.648 49.884ZM75.6146 60.9C74.8226 60.9 74.0426 60.78 73.2746 60.54C72.5306 60.3 71.9066 59.88 71.4026 59.28C70.9226 58.68 70.6826 57.852 70.6826 56.796C70.6826 56.796 70.6826 56.52 70.6826 55.968C70.7066 55.416 70.7186 54.708 70.7186 53.844C70.7426 52.98 70.7546 52.068 70.7546 51.108C70.7546 50.124 70.7546 49.188 70.7546 48.3C70.7786 47.412 70.7906 46.692 70.7906 46.14C70.7906 44.508 70.5986 43.212 70.2146 42.252C69.8546 41.268 69.3986 40.5 68.8466 39.948C70.0946 38.916 71.4626 38.4 72.9506 38.4C74.2946 38.4 75.3146 38.796 76.0106 39.588C76.7066 40.356 77.1746 41.412 77.4146 42.756C77.6786 44.1 77.8106 45.6 77.8106 47.256C77.8106 48.144 77.7986 49.152 77.7746 50.28C77.7746 51.384 77.7626 52.488 77.7386 53.592C77.7146 54.672 77.6786 55.644 77.6306 56.508H78.8546C79.6946 55.044 80.4386 53.652 81.0866 52.332C81.7346 51.012 82.1906 49.716 82.4546 48.444C82.4546 47.628 82.3706 46.716 82.2026 45.708C82.0586 44.7 81.8666 43.752 81.6266 42.864C81.3866 41.952 81.1346 41.28 80.8706 40.848C81.2306 40.368 81.7826 39.984 82.5266 39.696C83.2706 39.408 84.0386 39.264 84.8306 39.264C85.4546 39.264 86.0546 39.372 86.6306 39.588C87.2306 39.804 87.7226 40.152 88.1066 40.632C88.5146 41.112 88.7186 41.748 88.7186 42.54C88.7186 43.284 88.5626 44.076 88.2506 44.916C87.9386 45.732 87.5906 46.716 87.2066 47.868L87.0626 56.508H88.2866C88.8386 55.452 89.4266 54.252 90.0506 52.908C90.6746 51.54 91.2626 50.148 91.8146 48.732C92.3906 47.316 92.8586 45.984 93.2186 44.736C93.5786 43.464 93.7586 42.408 93.7586 41.568C93.7586 41.232 93.7226 40.932 93.6506 40.668C93.6026 40.404 93.5306 40.164 93.4346 39.948C94.2746 39.42 95.1026 39.036 95.9186 38.796C96.7346 38.532 97.4786 38.4 98.1506 38.4C99.2066 38.4 99.9626 38.712 100.419 39.336C100.875 39.96 101.103 40.776 101.103 41.784C101.103 42.648 100.911 43.68 100.527 44.88C100.167 46.08 99.7106 47.34 99.1586 48.66C98.6066 49.956 98.0546 51.204 97.5026 52.404C96.9506 53.58 96.5066 54.588 96.1706 55.428L96.6746 57.516C96.3146 57.804 95.7866 58.14 95.0906 58.524C94.3946 58.908 93.6026 59.28 92.7146 59.64C91.8506 60 90.9386 60.3 89.9786 60.54C89.0426 60.78 88.1426 60.9 87.2786 60.9C86.2226 60.9 85.2746 60.66 84.4346 60.18C83.6186 59.7 83.0666 58.848 82.7786 57.624C81.7226 58.656 80.6186 59.46 79.4666 60.036C78.3386 60.612 77.0546 60.9 75.6146 60.9ZM113.912 60.9C111.68 60.9 109.796 60.504 108.26 59.712C106.724 58.92 105.56 57.816 104.768 56.4C104 54.96 103.616 53.304 103.616 51.432C103.616 49.488 103.964 47.724 104.66 46.14C105.38 44.532 106.376 43.152 107.648 42C108.92 40.848 110.396 39.96 112.076 39.336C113.78 38.712 115.616 38.4 117.584 38.4C119.912 38.4 121.628 38.916 122.732 39.948C123.836 40.98 124.388 42.276 124.388 43.836C124.388 45.18 123.944 46.452 123.056 47.652C122.192 48.828 120.788 49.788 118.844 50.532C116.9 51.252 114.308 51.624 111.068 51.648C111.14 53.184 111.488 54.396 112.112 55.284C112.76 56.148 113.564 56.58 114.524 56.58C115.004 56.58 115.508 56.472 116.036 56.256C116.564 56.016 117.008 55.608 117.368 55.032C117.728 54.432 117.908 53.616 117.908 52.584C119.54 52.584 120.824 52.764 121.76 53.124C122.696 53.484 123.164 54.132 123.164 55.068C123.164 55.932 122.792 56.82 122.048 57.732C121.304 58.62 120.236 59.376 118.844 60C117.476 60.6 115.832 60.9 113.912 60.9ZM111.392 48.768C113.144 48.624 114.548 48.3 115.604 47.796C116.66 47.292 117.428 46.716 117.908 46.068C118.388 45.42 118.628 44.82 118.628 44.268C118.628 43.788 118.484 43.392 118.196 43.08C117.908 42.768 117.5 42.612 116.972 42.612C116.108 42.612 115.304 42.912 114.56 43.512C113.816 44.112 113.168 44.892 112.616 45.852C112.088 46.788 111.68 47.76 111.392 48.768ZM136.204 60.9C133.948 60.9 132.148 60.72 130.804 60.36C129.484 60.024 128.536 59.556 127.96 58.956C127.384 58.356 127.096 57.696 127.096 56.976C127.096 56.424 127.24 55.788 127.528 55.068C127.84 54.348 128.284 53.664 128.86 53.016C129.268 53.568 129.808 54.084 130.48 54.564C131.176 55.02 131.932 55.392 132.748 55.68C133.564 55.944 134.356 56.076 135.124 56.076C135.964 56.076 136.72 55.884 137.392 55.5C138.064 55.092 138.508 54.408 138.724 53.448C135.028 53.016 132.376 52.2 130.768 51C129.16 49.776 128.356 48.084 128.356 45.924C128.356 44.556 128.68 43.392 129.328 42.432C129.976 41.472 130.84 40.704 131.92 40.128C133.024 39.528 134.272 39.096 135.664 38.832C137.08 38.544 138.544 38.4 140.056 38.4C141.472 38.4 142.732 38.592 143.836 38.976C144.94 39.336 145.804 39.828 146.428 40.452C147.052 41.076 147.364 41.796 147.364 42.612C147.364 43.764 146.944 44.64 146.104 45.24C145.288 45.84 144.352 46.14 143.296 46.14C142.576 46.14 141.82 45.9 141.028 45.42C140.236 44.94 139.6 44.196 139.12 43.188C138.232 43.452 137.524 43.836 136.996 44.34C136.468 44.82 136 45.516 135.592 46.428C138.328 46.836 140.5 47.352 142.108 47.976C143.716 48.6 144.868 49.392 145.564 50.352C146.284 51.288 146.644 52.452 146.644 53.844C146.644 54.948 146.392 55.908 145.888 56.724C145.408 57.54 144.772 58.212 143.98 58.74C143.188 59.268 142.324 59.688 141.388 60C140.452 60.336 139.528 60.564 138.616 60.684C137.704 60.828 136.9 60.9 136.204 60.9ZM160.597 60.9C158.485 60.9 156.661 60.504 155.125 59.712C153.613 58.896 152.449 57.78 151.633 56.364C150.817 54.948 150.409 53.304 150.409 51.432C150.409 48.84 150.973 46.572 152.101 44.628C153.253 42.66 154.825 41.136 156.817 40.056C158.809 38.952 161.077 38.4 163.621 38.4C164.029 38.4 164.437 38.424 164.845 38.472C165.277 38.496 165.733 38.568 166.213 38.688C166.333 39.024 166.429 39.432 166.501 39.912C166.573 40.368 166.621 40.86 166.645 41.388C166.861 41.316 167.089 41.256 167.329 41.208C167.593 41.16 167.869 41.136 168.157 41.136C168.997 41.136 169.789 41.364 170.533 41.82C171.277 42.252 171.889 42.936 172.369 43.872C172.849 44.808 173.089 45.996 173.089 47.436C173.089 49.572 172.729 51.48 172.009 53.16C171.313 54.816 170.365 56.22 169.165 57.372C167.965 58.524 166.621 59.4 165.133 60C163.669 60.6 162.157 60.9 160.597 60.9ZM161.713 56.472C162.265 56.472 162.841 56.34 163.441 56.076C164.041 55.812 164.629 55.332 165.205 54.636C165.781 53.94 166.261 52.956 166.645 51.684C165.613 51.036 164.869 50.244 164.413 49.308C163.957 48.348 163.729 47.292 163.729 46.14C163.729 45.804 163.789 45.372 163.909 44.844C164.029 44.316 164.233 43.776 164.521 43.224C164.833 42.672 165.253 42.216 165.781 41.856C164.125 42.192 162.769 42.696 161.713 43.368C160.657 44.04 159.829 44.82 159.229 45.708C158.653 46.572 158.245 47.472 158.005 48.408C157.789 49.32 157.681 50.196 157.681 51.036C157.681 51.996 157.837 52.896 158.149 53.736C158.461 54.552 158.917 55.212 159.517 55.716C160.117 56.22 160.849 56.472 161.713 56.472ZM180.715 60.9C179.203 60.9 178.123 60.516 177.475 59.748C176.827 58.98 176.503 57.876 176.503 56.436C176.503 55.932 176.575 55.164 176.719 54.132C176.863 53.076 177.043 51.912 177.259 50.64C177.499 49.344 177.751 48.048 178.015 46.752C178.279 45.456 178.531 44.304 178.771 43.296L176.899 40.416C177.883 39.864 178.939 39.396 180.067 39.012C181.219 38.604 182.383 38.4 183.559 38.4C184.567 38.4 185.311 38.652 185.791 39.156C186.271 39.636 186.511 40.296 186.511 41.136C186.511 41.76 186.427 42.408 186.259 43.08C186.091 43.752 185.899 44.328 185.683 44.808L186.043 44.988C187.459 42.564 188.947 40.86 190.507 39.876C192.067 38.892 193.723 38.4 195.475 38.4C196.747 38.4 197.791 38.724 198.607 39.372C199.423 39.996 199.831 41.016 199.831 42.432C199.831 43.152 199.711 43.944 199.471 44.808L199.831 44.988C201.247 42.564 202.735 40.86 204.295 39.876C205.855 38.892 207.511 38.4 209.263 38.4C210.727 38.4 211.819 38.76 212.539 39.48C213.259 40.176 213.619 41.268 213.619 42.756C213.619 44.052 213.439 45.432 213.079 46.896C212.743 48.336 212.395 49.824 212.035 51.36C211.675 52.872 211.495 54.372 211.495 55.86C211.495 57.348 211.747 58.44 212.251 59.136C210.979 60.312 209.659 60.9 208.291 60.9C206.779 60.9 205.699 60.516 205.051 59.748C204.403 58.98 204.079 57.876 204.079 56.436C204.079 55.644 204.187 54.768 204.403 53.808C204.619 52.824 204.871 51.828 205.159 50.82C205.447 49.812 205.699 48.864 205.915 47.976C206.131 47.088 206.239 46.32 206.239 45.672C206.239 45.168 206.143 44.772 205.951 44.484C205.783 44.196 205.471 44.052 205.015 44.052C204.367 44.052 203.623 44.34 202.783 44.916C201.967 45.492 201.163 46.308 200.371 47.364C199.603 48.396 198.967 49.632 198.463 51.072C197.959 52.512 197.707 54.108 197.707 55.86C197.707 57.348 197.959 58.44 198.463 59.136C197.191 60.312 195.871 60.9 194.503 60.9C192.991 60.9 191.911 60.516 191.263 59.748C190.615 58.98 190.291 57.876 190.291 56.436C190.291 55.644 190.399 54.768 190.615 53.808C190.831 52.824 191.083 51.828 191.371 50.82C191.659 49.812 191.911 48.864 192.127 47.976C192.343 47.088 192.451 46.32 192.451 45.672C192.451 45.168 192.355 44.772 192.163 44.484C191.995 44.196 191.683 44.052 191.227 44.052C190.579 44.052 189.835 44.34 188.995 44.916C188.179 45.492 187.375 46.308 186.583 47.364C185.815 48.396 185.179 49.632 184.675 51.072C184.171 52.512 183.919 54.108 183.919 55.86C183.919 57.348 184.171 58.44 184.675 59.136C183.403 60.312 182.083 60.9 180.715 60.9ZM227.15 60.9C224.918 60.9 223.034 60.504 221.498 59.712C219.962 58.92 218.798 57.816 218.006 56.4C217.238 54.96 216.854 53.304 216.854 51.432C216.854 49.488 217.202 47.724 217.898 46.14C218.618 44.532 219.614 43.152 220.886 42C222.158 40.848 223.634 39.96 225.314 39.336C227.018 38.712 228.854 38.4 230.822 38.4C233.15 38.4 234.866 38.916 235.97 39.948C237.074 40.98 237.626 42.276 237.626 43.836C237.626 45.18 237.182 46.452 236.294 47.652C235.43 48.828 234.026 49.788 232.082 50.532C230.138 51.252 227.546 51.624 224.306 51.648C224.378 53.184 224.726 54.396 225.35 55.284C225.998 56.148 226.802 56.58 227.762 56.58C228.242 56.58 228.746 56.472 229.274 56.256C229.802 56.016 230.246 55.608 230.606 55.032C230.966 54.432 231.146 53.616 231.146 52.584C232.778 52.584 234.062 52.764 234.998 53.124C235.934 53.484 236.402 54.132 236.402 55.068C236.402 55.932 236.03 56.82 235.286 57.732C234.542 58.62 233.474 59.376 232.082 60C230.714 60.6 229.07 60.9 227.15 60.9ZM224.63 48.768C226.382 48.624 227.786 48.3 228.842 47.796C229.898 47.292 230.666 46.716 231.146 46.068C231.626 45.42 231.866 44.82 231.866 44.268C231.866 43.788 231.722 43.392 231.434 43.08C231.146 42.768 230.738 42.612 230.21 42.612C229.346 42.612 228.542 42.912 227.798 43.512C227.054 44.112 226.406 44.892 225.854 45.852C225.326 46.788 224.918 47.76 224.63 48.768Z" fill="black"/>
<defs>
<filter id="filter0_d_12_2" x="0.0419922" y="58.344" width="276.097" height="57.296" filterUnits="userSpaceOnUse" color-interpolation-filters="sRGB">
<feFlood flood-opacity="0" result="BackgroundImageFix"/>
<feColorMatrix in="SourceAlpha" type="matrix" values="0 0 0 0 0 0 0 0 0 0 0 0 0 0 0 0 0 0 127 0" result="hardAlpha"/>
<feOffset dx="6" dy="6"/>
<feComposite in2="hardAlpha" operator="out"/>
<feColorMatrix type="matrix" values="0 0 0 0 0.494118 0 0 0 0 0.164706 0 0 0 0 0.0470588 0 0 0 1 0"/>
<feBlend mode="normal" in2="BackgroundImageFix" result="effect1_dropShadow_12_2"/>
<feBlend mode="normal" in="SourceGraphic" in2="effect1_dropShadow_12_2" result="shape"/>
</filter>
</defs>
</svg>
